<?xml version="1.0" standalone="no"?>
<!DOCTYPE svg PUBLIC "-//W3C//DTD SVG 20010904//EN"
 "http://www.w3.org/TR/2001/REC-SVG-20010904/DTD/svg10.dtd">
<svg version="1.0" xmlns="http://www.w3.org/2000/svg"
 width="125.000000pt" height="125.000000pt" viewBox="0 0 125.000000 125.000000"
 preserveAspectRatio="xMidYMid meet">
<metadata>
Created by potrace 1.11, written by Peter Selinger 2001-2013
</metadata>
<g transform="translate(0.000000,125.000000) scale(0.100000,-0.100000)"
fill="#000000" stroke="none">
<path d="M236 1081 c-2 -3 -4 -30 -5 -58 l-2 -53 55 0 55 0 -3 50 c-1 27 -4
52 -7 54 -8 8 -89 14 -93 7z"/>
<path d="M914 1028 l1 -53 50 -1 c28 0 52 3 55 7 3 4 4 28 2 53 l-4 46 -52 0
-53 0 1 -52z"/>
<path d="M385 970 l-40 -5 0 -57 c-1 -32 -4 -60 -8 -64 -4 -4 -7 -3 -7 2 0 5
-21 9 -48 9 -52 0 -47 9 -51 -91 -1 -19 -7 -22 -53 -23 -28 0 -53 -3 -56 -6
-3 -2 -5 -28 -5 -57 l1 -53 -57 0 -56 0 -1 -162 c0 -141 2 -163 15 -164 17 -2
58 -2 77 0 15 1 24 82 11 99 -6 7 -6 12 0 12 10 0 10 80 0 97 -4 6 19 10 61
11 l67 1 -3 -110 c-3 -85 -1 -109 10 -110 92 -9 99 -4 94 67 -2 35 0 52 6 48
15 -10 328 -10 328 -1 0 4 8 4 18 0 9 -4 64 -8 122 -8 l106 1 -1 -55 0 -54 53
-3 c47 -2 52 0 53 19 1 12 2 31 3 42 0 11 -2 28 -7 38 -4 9 -4 17 0 17 4 0 6
25 5 55 l-4 55 64 -1 63 -1 0 -112 0 -111 50 0 50 0 2 162 c3 181 6 174 -72
169 l-41 -3 1 55 c0 52 -2 57 -25 62 -14 4 -40 3 -59 -1 l-33 -7 4 59 c4 54 3
59 -16 60 -53 4 -62 4 -82 -3 -20 -6 -21 -3 -19 47 3 64 -5 73 -62 72 l-43 -1
0 -65 c0 -36 -4 -61 -8 -56 -8 12 -82 13 -99 2 -7 -5 -13 -5 -13 0 0 10 -93 9
-109 -1 -6 -4 -11 -3 -11 2 0 4 -24 8 -54 7 l-54 -2 2 54 c2 63 -8 72 -69 63z"/>
<path d="M348 276 c-1 -6 -2 -30 -2 -53 l-1 -43 60 -1 c33 0 81 -1 108 -2 51
-2 48 -6 51 70 l1 41 -107 -1 c-70 0 -109 -4 -110 -11z"/>
<path d="M689 276 c-6 -45 -6 -75 0 -85 10 -16 120 -19 130 -3 5 9 21 11 48 6
l41 -6 -1 49 0 49 -109 0 c-70 1 -108 -3 -109 -10z"/>
</g>
</svg>
